<?xml version="1.0" standalone="no"?><!DOCTYPE svg PUBLIC "-//W3C//DTD SVG 1.1//EN" "http://www.w3.org/Graphics/SVG/1.1/DTD/svg11.dtd"><svg t="1589785461608" class="icon" viewBox="0 0 1110 1024" version="1.1" xmlns="http://www.w3.org/2000/svg" p-id="21738" xmlns:xlink="http://www.w3.org/1999/xlink" width="216.796875" height="200"><defs><style type="text/css"></style></defs><path d="M417.476923 283.569231h638.030769c23.630769 0 47.261538 23.630769 47.261539 47.261538s-23.630769 47.261538-47.261539 47.261539H417.476923c-23.630769 0-39.384615-23.630769-39.384615-47.261539s15.753846-47.261538 39.384615-47.261538z m0 291.446154h638.030769c23.630769 0 47.261538 23.630769 47.261539 47.261538s-23.630769 47.261538-47.261539 47.261539H417.476923c-23.630769-7.876923-39.384615-31.507692-39.384615-55.138462s15.753846-39.384615 39.384615-39.384615zM47.261538 0h1016.123077c23.630769 0 39.384615 23.630769 39.384616 47.261538s-23.630769 47.261538-47.261539 47.261539H47.261538C23.630769 86.646154 0 70.892308 0 47.261538S23.630769 0 47.261538 0z m0 858.584615h1016.123077c23.630769 0 47.261538 23.630769 47.261539 47.261539s-15.753846 47.261538-47.261539 47.261538H47.261538c-23.630769-7.876923-47.261538-23.630769-47.261538-47.261538s23.630769-47.261538 47.261538-47.261539zM15.753846 504.123077l212.676923 149.661538c15.753846 15.753846 39.384615 7.876923 55.138462-7.876923V322.953846c0-23.630769-15.753846-39.384615-39.384616-39.384615-7.876923 0-15.753846 0-23.630769 7.876923L15.753846 441.107692c-15.753846 15.753846-23.630769 47.261538 0 63.015385z" fill="#2D2D2D" p-id="21739"></path></svg>