<?xml version="1.0" standalone="no"?><!DOCTYPE svg PUBLIC "-//W3C//DTD SVG 1.1//EN" "http://www.w3.org/Graphics/SVG/1.1/DTD/svg11.dtd"><svg t="1589947419685" class="icon" viewBox="0 0 1280 1024" version="1.1" xmlns="http://www.w3.org/2000/svg" p-id="7122" xmlns:xlink="http://www.w3.org/1999/xlink" width="250" height="200"><defs><style type="text/css"></style></defs><path d="M941 606v145.19c0 19.22-15.58 34.81-34.81 34.81H428.81c-19.22 0-34.81-15.58-34.81-34.81V273.81c0-19.22 15.58-34.81 34.81-34.81H574c18.78 0 34-15.22 34-34s-15.22-34-34-34H395.14c-38.19 0-69.14 30.96-69.14 69.14v544.71c0 38.19 30.96 69.14 69.14 69.14h544.71c38.19 0 69.14-30.96 69.14-69.14V606c0-18.78-15.22-34-34-34-18.77 0-33.99 15.22-33.99 34z" p-id="7123" fill="#6C748C"></path><path d="M731.5 448.5c-13.28-13.28-13.28-34.81 0-48.08L950.92 181c13.28-13.28 34.81-13.28 48.08 0 13.28 13.28 13.28 34.81 0 48.08L779.58 448.5c-13.27 13.28-34.8 13.28-48.08 0zM597 477h-75c-18.78 0-34-15.22-34-34s15.22-34 34-34h75c18.78 0 34 15.22 34 34s-15.22 34-34 34zM753 656H522c-18.78 0-34-15.22-34-34s15.22-34 34-34h231c18.78 0 34 15.22 34 34s-15.22 34-34 34z" p-id="7124" fill="#6C748C"></path></svg>