<?xml version="1.0" standalone="no"?><!DOCTYPE svg PUBLIC "-//W3C//DTD SVG 1.1//EN" "http://www.w3.org/Graphics/SVG/1.1/DTD/svg11.dtd"><svg t="1589785291985" class="icon" viewBox="0 0 1024 1024" version="1.1" xmlns="http://www.w3.org/2000/svg" p-id="13720" xmlns:xlink="http://www.w3.org/1999/xlink" width="200" height="200"><defs><style type="text/css"></style></defs><path d="M591.855 79.46h115.65v273.927h-115.65V79.46z m-99.88 314.74h248.912c31.89 0 47.19-15.302 47.19-47.074V86.248c0-32.007-15.008-47.045-47.103-47.045H243.266c-31.421 0-46.78 15.214-46.81 46.43-0.058 87.301-0.058 174.573 0 261.873 0.03 31.246 15.564 46.664 46.693 46.664l248.854 0.03z m20.098 590.597c116.294 0 232.588 0 348.91-0.059 29.579 0 45.173-15.564 45.173-44.82V557.01c0-29.403-15.711-45.26-44.821-45.26H162.519c-28.671 0-44.675 15.916-44.675 44.411a419793.28 419793.28 0 0 0 0 383.902c0 4.622 0.147 9.362 1.17 13.867 4.799 20.216 20.012 30.807 44.178 30.836 116.264 0.059 232.587 0 348.881 0z m405.931 39.174h-811.98c-1.872-0.644-3.685-1.55-5.587-1.902-46.986-8.396-78.29-35.37-94.235-80.162-2.75-7.753-4.154-15.945-6.202-23.932v-811.98c0.644-1.872 1.55-3.656 1.902-5.587C11.556 48.8 42.188 16.764 92.596 3.248c4.447-1.2 8.923-2.166 13.4-3.248h697.967c29.081 6.436 51.901 23.756 72.585 43.592a3606.718 3606.718 0 0 1 101.169 100.876c20.771 21.562 39.496 45.054 46.254 75.51v697.997c-0.644 1.873-1.55 3.657-1.902 5.588-9.654 51.637-40.257 83.615-90.694 97.19-4.418 1.17-8.924 2.165-13.37 3.218z" p-id="13721"></path></svg>